<?xml version="1.0" encoding="UTF-8"?>
<svg enable-background="new 0 0 751.2 184.2" version="1.1" viewBox="0 0 751.2 184.2" xml:space="preserve" xmlns="http://www.w3.org/2000/svg">
<style type="text/css">
	.st0{fill-rule:evenodd;clip-rule:evenodd;fill:#0382F7;}
	.st1{fill-rule:evenodd;clip-rule:evenodd;fill:#030303;}
	.st2{display:none;}
	.st3{display:inline;}
	.st4{fill:#030303;}
</style>
<polygon class="st0" points="179.1 49.6 133.6 140.2 88 49.3 178.6 49.3 153.8 0.5 1.9 0.5 94.1 184.4 173.1 184.4 240.7 49.6"/>
<path class="st1" d="m386.4 50.4h39.1l-62.7 126.5h-28l-62.8-126.5h39.1l37.7 84.8 37.6-84.8zm164.8 0h39.1l-62.7 126.5h-28l-62.8-126.5h39.1l37.7 84.8 37.6-84.8zm137.1 128.3c-15.5 0-28.8-2.2-39.9-6.7-11-4.5-19.5-10.9-25.3-19.4s-8.7-18.7-8.7-30.7v-17.2c0-11.9 2.8-22 8.7-30.4 5.8-8.4 14.2-14.8 25.3-19.2 11-4.4 24.3-6.6 39.9-6.6 8.9 0 17.3 0.8 25.2 2.4 7.8 1.6 14.9 3.9 21.3 6.9 6.3 3 11.5 6.7 15.7 10.9l-26 18.5c-4.5-3.5-9.6-6.2-15.5-8.1s-12-2.8-18.5-2.8c-11.9 0-21.1 2.5-27.7 7.4-6.5 4.9-9.8 11.9-9.8 20.9v17.4c0 9.1 3.2 16.3 9.8 21.3s15.8 7.6 27.7 7.6c6.6 0 12.8-1 18.7-3s11-4.9 15.3-8.6l26 19.7c-4.3 4.2-9.6 7.8-15.8 10.8-6.3 2.9-13.3 5.2-21.2 6.7-7.9 1.4-16.3 2.2-25.2 2.2z"/>
<g class="st2">
	<g class="st3">
		<path class="st4" d="m204.5 183.4v-18.9h-7.1v-2.5h17v2.5h-7.1v18.9h-2.8z"/>
		<path class="st4" d="m217.3 183.4v-21.5h4.3l5.1 15.2c0.5 1.4 0.8 2.5 1 3.2 0.2-0.8 0.6-1.9 1.1-3.4l5.1-14.9h3.8v21.5h-2.7v-18l-6.2 18h-2.6l-6.2-18.3v18.3h-2.7v-0.1z"/>
	</g>
</g>
</svg>
